<svg xmlns="http://www.w3.org/2000/svg" style="display:none;">
  <symbol id="phone" viewBox="0 0 32 30">
      <path fill-rule="evenodd" clip-rule="evenodd" d="M16 .172c-5.593 0-11.2.946-13.233 2.83C1.079 4.565.517 7.327.327 9.075c0 0-.027.173-.027.247 0 .686.589 1.236 1.309 1.236.085 0 3.231-.241 5.128-.39.046-.006.092-.012.137-.024.707-.018 1.276-.562 1.276-1.236l.007-2.434c0-.754.647-1.36 1.446-1.36h12.794c.799 0 1.447.606 1.447 1.36l.006 2.434c0 .674.57 1.218 1.276 1.236.045.012.091.018.137.025 1.897.148 5.044.389 5.128.389.72 0 1.309-.55 1.309-1.236 0-.074-.026-.247-.026-.247-.19-1.748-.752-4.51-2.44-6.073C27.2 1.118 21.593.172 16 .172Zm0 16.063c-1.446 0-2.617 1.106-2.617 2.472 0 1.365 1.171 2.47 2.617 2.47s2.617-1.105 2.617-2.47c0-1.366-1.171-2.472-2.617-2.472Zm-1.962-5.56V9.131c0-.853-.733-1.545-1.636-1.545-.902 0-1.635.692-1.635 1.545v1.544l-8.825 8.903a3.008 3.008 0 0 0-.988 2.212v2.477c0 1.366 1.171 2.471 2.617 2.471h.654v1.545c0 .852.733 1.544 1.636 1.544.902 0 1.635-.692 1.635-1.544v-1.545h17.008v1.545c0 .852.733 1.544 1.636 1.544.902 0 1.635-.692 1.635-1.544v-1.545h.654c1.446 0 2.617-1.105 2.617-2.47V21.79c0-.866-.38-1.65-.988-2.212l-8.825-8.903V9.131c0-.853-.733-1.545-1.635-1.545-.903 0-1.635.692-1.635 1.545v1.544h-3.925ZM16 13.765c2.891 0 5.233 2.211 5.233 4.942 0 2.73-2.341 4.942-5.233 4.942-2.891 0-5.233-2.212-5.233-4.942 0-2.731 2.342-4.943 5.233-4.943Z"/>
  </symbol>

  <symbol id="phone-2" viewBox="0 0 16 18">
    <path d="M7.974 7.424c0 .189.154.337.342.337a.7.7 0 0 1 .703.696.34.34 0 0 0 .341.337.34.34 0 0 0 .342-.337 1.38 1.38 0 0 0-1.386-1.37.34.34 0 0 0-.342.337Zm5.558 1.37a.338.338 0 0 0 .341-.337c0-3.031-2.492-5.495-5.557-5.495a.34.34 0 0 0-.342.338.34.34 0 0 0 .342.337c2.69 0 4.874 2.164 4.874 4.82a.34.34 0 0 0 .342.337Z" /><path d="M11.105 8.457a.34.34 0 0 0 .341.337.34.34 0 0 0 .341-.337c0-1.894-1.556-3.433-3.471-3.433a.34.34 0 0 0-.342.338c0 .189.154.337.342.337 1.54 0 2.789 1.239 2.789 2.758ZM8.315.9a.34.34 0 0 0-.34.338.34.34 0 0 0 .34.337c3.841 0 6.965 3.088 6.965 6.882 0 .185.15.337.341.337a.34.34 0 0 0 .341-.337C15.962 4.289 12.532.9 8.316.9Zm3.336 11.114-.447.24c-.755.408-1.342 1.527-2.273.684L6.5 10.5 4.4 8.457c-1.055-1.334.126-1.65.54-2.4l.242-.439c.273-.5.372-1.06.29-1.62a2.557 2.557 0 0 0-.744-1.475 2.636 2.636 0 0 0-1.868-.762c-.706 0-1.372.27-1.87.762L.815 2.7c-.921.911-1.027 2.48-.3 4.425.686 1.856 2.069 3.867 3.885 5.663 2.769 2.737 5.851 4.313 8.063 4.313.874 0 1.615-.246 2.14-.766l.178-.176c.495-.489.772-1.144.775-1.85a2.636 2.636 0 0 0-.775-1.845 2.683 2.683 0 0 0-3.13-.45Z" />
  </symbol>

  <symbol id="mail" viewBox="0 0 37 26">
    <path fill-rule="evenodd" clip-rule="evenodd" d="M32.279 20.933 23.618 13l8.66-7.933-1.18-1.262L18.5 15.344 5.902 3.805l-1.18 1.262L13.381 13l-8.66 7.933 1.18 1.262 8.76-8.023 3.838 3.515 3.838-3.515 8.76 8.023 1.18-1.262ZM3.152.5C1.534.5.222 1.898.222 3.616v18.768c0 1.721 1.301 3.116 2.93 3.116h30.696c1.618 0 2.93-1.398 2.93-3.116V3.616c0-1.721-1.301-3.116-2.93-3.116H3.152Z" />
  </symbol>

  <symbol id="mail-2" viewBox="0 0 17 14">
    <path d="M1.01661 2.32528L7.76661 6.55572C7.99341 6.69747 8.28681 6.76467 8.58201 6.76467C8.87721 6.76467 9.17061 6.69747 9.39741 6.55572L16.1474 2.32528C16.5875 2.04913 17.0033 0.974976 16.196 0.974976H0.968909C0.161609 0.974976 0.577409 2.04913 1.01661 2.32528ZM16.3517 4.63842L9.39741 8.86677C9.09141 9.05367 8.87721 9.07572 8.58201 9.07572C8.28681 9.07572 8.07261 9.05367 7.76661 8.86677C7.46061 8.67987 1.34691 4.94082 0.847409 4.63737C0.496409 4.42317 0.500009 4.67412 0.500009 4.86732V12.525C0.500009 12.966 1.00941 13.575 1.40001 13.575H15.8C16.1906 13.575 16.7 12.966 16.7 12.525V4.86837C16.7 4.67517 16.7036 4.42422 16.3517 4.63842Z" />
  </symbol>

  <symbol id="telegram" viewBox="0 0 21 19">
    <path d="M20.124.563a1.502 1.502 0 0 0-1.521-.236l-17.34 7a1.493 1.493 0 0 0 .076 2.79l3.742 1.3 2.027 6.702c.004.013.017.022.022.035a.475.475 0 0 0 .309.284c.01.003.016.012.026.014H7.474a.434.434 0 0 0 .225-.011c.008-.002.016-.002.025-.005a.479.479 0 0 0 .184-.118c.006-.007.016-.008.022-.014l2.915-3.218 4.256 3.295c.258.202.576.312.905.312.71 0 1.322-.498 1.468-1.192L20.631 2a1.484 1.484 0 0 0-.507-1.438ZM8.166 12.689l-.684 3.326-1.428-4.72 7.08-3.688-4.837 4.837a.482.482 0 0 0-.131.245Zm8.36 4.618a.523.523 0 0 1-.336.386.507.507 0 0 1-.497-.076l-4.61-3.57a.483.483 0 0 0-.654.058L8.4 16.343l.683-3.316 6.957-6.959a.484.484 0 0 0-.565-.77L5.446 10.52l-3.79-1.318a.509.509 0 0 1-.35-.476.515.515 0 0 1 .324-.502l17.336-7a.518.518 0 0 1 .54.084.506.506 0 0 1 .176.501l-3.156 15.499v-.001Z"/>
  </symbol>

  <symbol id="vk" viewBox="0 0 31 17">
    <path d="M24.833 16.665a4.05 4.05 0 0 1-2.08-.63c-.65-.44-1.248-.953-1.78-1.53-.44-.44-1.17-1.18-1.45-1.18s-.48.92-.47 1.57a1.75 1.75 0 0 1-.47 1.21 2.26 2.26 0 0 1-1.22.5h-1.92a11.32 11.32 0 0 1-7.43-3c-3.68-3.37-6.84-9.81-6.97-10.09a1.34 1.34 0 0 1 .15-1.48 2.07 2.07 0 0 1 1.36-.48h4.2c.338.049.661.168.95.35.272.182.49.434.63.73a22.09 22.09 0 0 0 1.48 2.67c1.31 2 1.89 2.46 2.1 2.56.234-.938.298-1.91.19-2.87a2.699 2.699 0 0 0-.21-1.28 1.33 1.33 0 0 0-.77-.29l-.73-.69c-.14-.66.59-1.23 1.1-1.45a8.69 8.69 0 0 1 3.15-.38h.71a9.11 9.11 0 0 1 2.15.2c1.7.36 1.64 1.73 1.57 3.31 0 .46-.05 1-.05 1.62v.48c-.04.435-.009.874.09 1.3a9.087 9.087 0 0 0 2.07-2.48 20.375 20.375 0 0 0 1.52-2.8 1.58 1.58 0 0 1 1.6-.95h4.28a2 2 0 0 1 .38 0c1 0 1.59.29 1.83.85s.17 1.66-2.36 4.61l-1 1.13a7.343 7.343 0 0 0-1.24 1.59c.379.43.809.813 1.28 1.14a14.25 14.25 0 0 1 3 3.07 1.6 1.6 0 0 1 .26 1.68 2.299 2.299 0 0 1-1.88 1l-3.79.05-.23-.04Zm-5.31-4.84c.9 0 1.68.79 2.51 1.62.448.49.952.925 1.5 1.3a2.51 2.51 0 0 0 1.4.42h.1l3.8-.05c.188-.011.371-.059.54-.14l-.1-.16a13.216 13.216 0 0 0-2.68-2.72c-1.19-1-1.8-1.47-1.87-2.24-.07-.77.49-1.44 1.61-2.71l1-1.11a10.73 10.73 0 0 0 2.05-2.95 5.66 5.66 0 0 0-.67 0h-4.37a.55.55 0 0 0-.24 0 20.49 20.49 0 0 1-1.65 3.05c-1.89 2.82-2.78 3.2-3.41 3.2a1.19 1.19 0 0 1-.56-.14c-1-.57-1-1.84-.94-2.76v-.43c0-.65 0-1.21.05-1.69.08-1.68 0-1.69-.38-1.78a8.56 8.56 0 0 0-1.86-.16h-.69a13 13 0 0 0-1.9.1c.096.07.18.154.25.25.413.65.618 1.41.59 2.18.13 1.65.06 3.8-1 4.32a1.38 1.38 0 0 1-.6.13c-.93 0-1.85-.88-3.42-3.26a23.42 23.42 0 0 1-1.61-2.85l-.08-.1a1.21 1.21 0 0 0-.32-.11h-4.07c.59 1.22 3.39 6.62 6.52 9.45a10 10 0 0 0 6.42 2.63h1.85a.998.998 0 0 0 .27-.1v-.09c0-.27 0-2.6 1.58-3 .122-.049.25-.082.38-.1Z"/>
  </symbol>

  <symbol id="youtube" viewBox="0 0 21 17">
    <path d="M13.603 8.2 9.248 5.298a.363.363 0 0 0-.563.3v5.806a.354.354 0 0 0 .191.318.407.407 0 0 0 .172.045.327.327 0 0 0 .2-.063l4.355-2.904a.354.354 0 0 0 0-.598ZM9.41 10.724V6.277L12.75 8.5l-3.339 2.223ZM19.8 3.31a1.85 1.85 0 0 0-1.097-1.233C15.635.897 10.709.915 10.5.915c-.209 0-5.135-.018-8.202 1.162A1.85 1.85 0 0 0 1.201 3.31C.974 4.19.7 5.805.7 8.5c0 2.694.273 4.31.5 5.19a1.852 1.852 0 0 0 1.097 1.233c3.067 1.18 7.993 1.162 8.202 1.162h.063c.627 0 5.226-.037 8.139-1.162a1.852 1.852 0 0 0 1.097-1.233c.227-.88.5-2.495.5-5.19 0-2.695-.273-4.31-.5-5.19Zm-.707 10.198a1.088 1.088 0 0 1-.653.735c-2.94 1.134-7.885 1.116-7.939 1.116-.054 0-4.999.018-7.939-1.116a1.088 1.088 0 0 1-.653-.735c-.217-.844-.48-2.395-.48-5.008s.263-4.164.48-5.008a1.089 1.089 0 0 1 .653-.735c2.94-1.134 7.885-1.116 7.939-1.116.054 0 4.999-.018 7.939 1.116a1.089 1.089 0 0 1 .653.735c.218.844.48 2.395.48 5.008s-.262 4.164-.48 5.008Z"/>
  </symbol>

  <symbol id="plane" viewBox="0 0 18 20">
    <path d="M15.783.093c-.728.173-1.46.347-1.733.824l-2.107 4.199L.63 7.806.171 9.147l8.658.82-1.47 3.634-3.283.78-.824 1.43 2.369.256.27 1.169c.12.414.545.69.908.604l1.095-.26 1.268 2.163.825-1.428-.81-3.505 2.377-3.03 4.536 7.961.914-1.038L14.213 6.63l2.563-3.895c.276-.477.096-1.255-.085-2.036-.09-.387-.545-.691-.908-.605Z"/>
  </symbol>

  <symbol id="bus" viewBox="0 0 18 21">
    <path d="M4.34 13.948a1.3 1.3 0 0 0-.415-.97 1.392 1.392 0 0 0-1.004-.4c-.392 0-.726.133-1.003.4a1.3 1.3 0 0 0-.416.97c0 .38.138.702.416.97.277.268.611.402 1.003.402.392 0 .726-.134 1.004-.402.277-.268.415-.59.415-.97Zm11.356 0a1.3 1.3 0 0 0-.416-.97 1.392 1.392 0 0 0-1.004-.4c-.392 0-.726.133-1.003.4a1.3 1.3 0 0 0-.416.97c0 .38.138.702.416.97.277.268.611.402 1.003.402.392 0 .727-.134 1.004-.402a1.3 1.3 0 0 0 .416-.97Zm-.51-4.242-.799-4.115a.695.695 0 0 0-.25-.401.698.698 0 0 0-.449-.156H3.508c-.17 0-.319.052-.448.156a.695.695 0 0 0-.25.401l-.798 4.115a.661.661 0 0 0 .155.568c.14.164.322.246.543.246h11.777a.682.682 0 0 0 .543-.246.661.661 0 0 0 .155-.568Zm-2.507-6.558a.488.488 0 0 0-.155-.364.523.523 0 0 0-.377-.15H5.05a.523.523 0 0 0-.377.15.488.488 0 0 0-.155.364.523.523 0 0 0 .532.514h7.097c.148 0 .274-.05.377-.15a.488.488 0 0 0 .155-.364Zm4.436 7.768v6.461h-1.42v1.372a1.3 1.3 0 0 1-.415.97 1.392 1.392 0 0 1-1.004.4c-.392 0-.726-.133-1.003-.4a1.299 1.299 0 0 1-.416-.97v-1.372H4.34v1.372c0 .378-.138.701-.415.97a1.392 1.392 0 0 1-1.004.4c-.392 0-.726-.133-1.003-.4a1.3 1.3 0 0 1-.416-.97v-1.372H.082v-6.46c0-.8.093-1.597.278-2.39l1.142-4.864c.066-.557.427-1.047 1.08-1.468.655-.422 1.505-.74 2.551-.954C6.18 1.027 7.335.92 8.6.92c1.264 0 2.419.107 3.465.321 1.046.215 1.896.532 2.55.954.655.421 1.015.91 1.082 1.468l1.164 4.864c.17.729.255 1.525.255 2.39Z"/>
  </symbol>

  <symbol id="bicycle" viewBox="0 0 22 18">
    <path d="M17.308 18a4.21 4.21 0 0 1-2.363-.727 4.3 4.3 0 0 1-1.566-1.935 4.368 4.368 0 0 1-.242-2.492 4.332 4.332 0 0 1 1.163-2.208 4.235 4.235 0 0 1 2.178-1.18 4.198 4.198 0 0 1 2.457.245c.777.327 1.441.88 1.908 1.589a4.356 4.356 0 0 1-.53 5.443A4.227 4.227 0 0 1 17.308 18Zm0-7.125c-.549 0-1.085.165-1.541.474a2.804 2.804 0 0 0-1.022 1.262 2.85 2.85 0 0 0-.158 1.625c.107.546.372 1.047.76 1.44a2.738 2.738 0 0 0 3.023.61c.506-.213.939-.573 1.243-1.036a2.84 2.84 0 0 0-.345-3.55 2.758 2.758 0 0 0-1.96-.825ZM5.105 18a4.21 4.21 0 0 1-2.363-.727 4.3 4.3 0 0 1-1.566-1.935 4.369 4.369 0 0 1-.242-2.492 4.331 4.331 0 0 1 1.164-2.208 4.235 4.235 0 0 1 2.177-1.18 4.198 4.198 0 0 1 2.457.245c.777.327 1.441.88 1.908 1.589a4.356 4.356 0 0 1-.53 5.443A4.227 4.227 0 0 1 5.105 18Zm0-7.125c-.549 0-1.085.165-1.541.474a2.804 2.804 0 0 0-1.022 1.262 2.85 2.85 0 0 0-.158 1.625c.107.546.372 1.047.76 1.44a2.738 2.738 0 0 0 3.022.61c.507-.213.94-.573 1.245-1.036a2.84 2.84 0 0 0-.346-3.55 2.758 2.758 0 0 0-1.96-.825ZM14.164 3a1.456 1.456 0 0 0 1.05-.44 1.497 1.497 0 0 0 .43-1.065 1.5 1.5 0 0 0-.426-1.06A1.457 1.457 0 0 0 14.174 0a1.461 1.461 0 0 0-1.048.436 1.501 1.501 0 0 0-.436 1.06 1.518 1.518 0 0 0 .43 1.061A1.478 1.478 0 0 0 14.164 3Z" /><path d="M16.362 6H14.34a.183.183 0 0 1-.163-.097L12.71 3.176a1.447 1.447 0 0 0-.435-.511 1.422 1.422 0 0 0-1.847.148l-3.23 3.3c-.27.28-.425.656-.43 1.05 0 .815.583 1.106.856 1.27 1.317.77 2.245 1.332 2.754 1.645a.186.186 0 0 1 .088.16v3.24c0 .404.307.75.704.77a.732.732 0 0 0 .546-.206.75.75 0 0 0 .23-.542V9.469a.759.759 0 0 0-.308-.61l-1.71-1.247a.187.187 0 0 1-.077-.134.19.19 0 0 1 .05-.147l1.941-2.1a.184.184 0 0 1 .239-.027.186.186 0 0 1 .058.064l1.008 1.846a.745.745 0 0 0 .647.386h2.59a.73.73 0 0 0 .535-.232A.751.751 0 0 0 16.362 6Z"/>
  </symbol>

  <symbol id="run" viewBox="0 0 17 20">
    <path d="M12.976 4.76c.95 0 1.721-.86 1.721-1.92S13.927.92 12.976.92c-.95 0-1.721.86-1.721 1.92s.77 1.92 1.72 1.92ZM11.923 9.53c.198.329.481.581.812.724.33.142.693.168 1.037.073l2.854-.796-.416-1.862-2.854.796L12.17 6.48a1.735 1.735 0 0 0-1.094-.82l-3.31-.739a1.56 1.56 0 0 0-1.094.158c-.34.185-.614.49-.783.867L4.461 9.129l1.54.86 1.427-3.185 1.692.378-4.377 8.138H.928v1.92h3.815c.601 0 1.167-.357 1.476-.932L7.87 13.24l4.448.992 1.563 5.231 1.632-.607-1.562-5.23a1.955 1.955 0 0 0-.495-.833 1.665 1.665 0 0 0-.801-.444l-2.615-.583 1.525-2.836.358.6Z" />
  </symbol>

  <symbol id="arrow-right" viewBox="0 0 11 14">
    <path d="M11 7 .5 13.062V.938L11 7Z"/>
  </symbol>

  <symbol id="user" viewBox="0 0 20 22">
    <path d="M19.376 20.242v-3.349c0-.937-.134-1.875-.67-2.812-.536-.938-1.205-1.742-2.143-2.277-.937-.67-2.947-.804-3.884-.804l-2.143 2.277.803 1.741v4.018L10 20.51l-1.34-1.474v-4.018l.938-1.741L7.321 11c-1.071 0-3.08.134-4.018.804-.938.535-1.473 1.339-2.009 2.277-.536.937-.67 1.74-.67 2.812v3.349S4.107 21.715 10 21.715c5.893 0 9.376-1.473 9.376-1.473ZM10 .419c-2.545 0-4.018 2.41-3.616 5.09.401 2.678 1.74 4.554 3.616 4.554 1.875 0 3.214-1.876 3.616-4.554.402-2.813-1.071-5.09-3.616-5.09Z" />
  </symbol>

  <symbol id="location" viewBox="0 0 17 21">
    <path d="M8.5 0A7.876 7.876 0 0 0 .625 7.875c0 5.058 3.803 7.27 4.644 8.279C7.29 18.577 7.403 21 8.5 21s1.212-2.423 3.23-4.846c.841-1.01 4.645-3.22 4.645-8.279A7.876 7.876 0 0 0 8.5 0Zm0 13.125a5.25 5.25 0 1 1 0-10.5 5.25 5.25 0 0 1 0 10.5Zm0-7.875a2.626 2.626 0 0 0 0 5.25 2.626 2.626 0 0 0 0-5.25Z" /><circle cx="8.5" cy="7.875" r=".875"/>
  </symbol>

  <symbol id="plus" viewBox="0 0 20 20">
    <path stroke-width="2" d="M0 10h20M10 20V0"/>
  </symbol>

  <symbol id="minus" viewBox="0 0 20 20">
    <path stroke-width="2" d="M0 10h20"/>
  </symbol>

  <symbol id="chevron-left" viewBox="0 0 17 30">
    <path d="M16.005 1.312a1.849 1.849 0 0 0-.601-.42 1.788 1.788 0 0 0-1.42 0c-.224.098-.429.24-.6.42L1.074 14.125a1.542 1.542 0 0 0-.32.499 1.591 1.591 0 0 0 .32 1.675l12.308 12.813a1.8 1.8 0 0 0 2.622 0c.726-.755-.443-2.065-1.169-2.82L4.23 15.211 15.404 3.558c.71-.74 1.327-1.506.6-2.246Z" />
  </symbol>

  <symbol id="chevron-right" viewBox="0 0 17 30">
    <path d="M.967 29.113c.172.18.377.322.602.419a1.79 1.79 0 0 0 1.419 0c.225-.097.429-.24.601-.42L15.897 16.3a1.54 1.54 0 0 0 .32-.498 1.589 1.589 0 0 0-.32-1.675L3.59 1.312a1.8 1.8 0 0 0-2.622 0c-.725.756.444 2.066 1.17 2.821l10.605 11.08L1.57 26.867c-.711.74-1.327 1.506-.602 2.246Z" />
  </symbol>
</svg>
