<svg xmlns="http://www.w3.org/2000/svg" style="display:none;">
  <symbol id="icon-menu" viewBox="0 0 25 11">
    <rect width="25" height="3" rx="1.5"/>
    <rect y="8" width="25" height="3" rx="1.5"/>
  </symbol>

  <symbol id="icon-close" viewBox="0 0 20 20" >
    <rect width="23.891" height="2.032" rx="1.016" transform="scale(.98435 1.01541) rotate(45 .335 4.13)" />
    <rect width="23.891" height="2.032" rx="1.016" transform="matrix(.69604 -.718 .69604 .718 .6 17.754)" />
  </symbol>

  <symbol id="logo-mobile" viewBox="0 0 96 15" >
    <path d="M94.911 6.189C95.637 5.727 96 5.016 96 4.055c0-1.255-.523-2.242-1.568-2.96C93.416.366 92.22 0 90.84 0c-1.35 0-2.584.397-3.701 1.192-1.104.781-1.655 1.825-1.655 3.132 0 .487.152.89.457 1.211.305.308.74.462 1.307.462.551 0 .972-.154 1.263-.462.304-.32.457-.724.457-1.21-.03-.372.094-.75.37-1.135.276-.397.777-.595 1.502-.595.61.012 1.046.166 1.307.46.276.296.4.59.37.885 0 .205-.073.41-.218.615a2.031 2.031 0 0 1-.457.48c-.145.116-.385.282-.718.5-.334.218-.567.372-.697.462-.755.55-1.133 1.28-1.133 2.19 0 .449.16.827.48 1.135.333.294.776.442 1.328.442.551 0 .987-.148 1.306-.442.334-.308.501-.686.501-1.134 0-.193.036-.372.109-.539.073-.166.189-.32.348-.46.175-.142.32-.257.436-.347.13-.09.32-.205.566-.346.261-.14.443-.243.544-.307ZM76.305 10.235l3.857-4.771c.395-.577.932-.897 1.61-.963.678-.078 1.271.085 1.78.491.509.406.749.95.72 1.63v6.834c0 .432-.169.799-.508 1.1-.325.288-.72.432-1.187.432-.466 0-.868-.144-1.207-.432a1.443 1.443 0 0 1-.488-1.1V9.214l-3.856 4.772c-.396.576-.933.897-1.61.962-.679.079-1.272-.085-1.78-.49-.51-.406-.75-.95-.721-1.63V6.013c0-.432.162-.798.487-1.1.34-.3.742-.451 1.208-.451.466 0 .862.15 1.187.452.339.3.508.667.508 1.1v4.221Z"/><path fill-rule="evenodd" clip-rule="evenodd" d="M58.967 13.389V5.975c0-.426-.178-.793-.535-1.1a1.725 1.725 0 0 0-1.219-.479 1.7 1.7 0 0 0-1.198.48c-.342.306-.513.673-.513 1.099v-.18c-.171-.4-.513-.74-1.027-1.019-.513-.293-1.097-.44-1.753-.44-1.284 0-2.467.473-3.55 1.42C48.115 6.7 47.588 8 47.588 9.651c0 1.692.52 3.004 1.56 3.937 1.042.932 2.232 1.399 3.573 1.399.656 0 1.233-.12 1.732-.36.5-.253.863-.553 1.09-.9.086.36.286.66.6.9.313.226.67.34 1.07.34.47 0 .876-.154 1.218-.46.357-.306.535-.68.535-1.12Zm-5.47-1.362c1.169 0 2.116-1.026 2.116-2.291 0-1.266-.947-2.291-2.116-2.291S51.38 8.47 51.38 9.735c0 1.266.948 2.292 2.117 2.292Z"/><path d="M43.081 8.237V6.094c0-.435.177-.804.53-1.108a1.793 1.793 0 0 1 1.236-.475c.47 0 .882.159 1.235.475.353.304.53.673.53 1.108v7.343c0 .435-.177.804-.53 1.108-.338.303-.75.455-1.235.455-.486 0-.905-.152-1.258-.455a1.434 1.434 0 0 1-.508-1.108v-2.175h-3.817v2.175c0 .435-.177.804-.53 1.108-.338.303-.75.455-1.235.455-.486 0-.905-.152-1.258-.455a1.434 1.434 0 0 1-.508-1.108V6.094c0-.435.177-.804.53-1.108a1.793 1.793 0 0 1 1.236-.475c.47 0 .882.159 1.235.475.353.304.53.673.53 1.108v2.143h3.817ZM33.962 4.511c.346 0 .642.131.89.394.247.262.37.867.37 1.234 0 .368-.123.747-.37 1.01-.247.262-.544.354-.89.354h-2.958v5.971c0 1.13-.994 1.526-1.99 1.526-.924 0-1.807-.5-1.807-1.515l.03-8.974h6.725ZM12.855 0v13.332c0 .44-.239.812-.57 1.118-.317.307-.815.46-1.27.46-.455 0-1.113-.153-1.444-.46a1.497 1.497 0 0 1-.476-1.118V3.008H3.772v10.322c0 .44-.165.813-.496 1.12-.317.306-.963.46-1.418.46-.455 0-1.051-.154-1.382-.46A1.497 1.497 0 0 1 0 13.33V0h12.855ZM24.637 13.365c-1.076 1.01-2.517 1.516-4.322 1.516-1.804 0-3.237-.505-4.298-1.516-1.092-1.026-1.638-2.308-1.638-3.847 0-1.554.546-2.836 1.638-3.847 1.06-1.01 2.494-1.516 4.298-1.516 1.805 0 3.246.505 4.322 1.516 1.077 1.026 1.615 2.308 1.615 3.847 0 1.539-.538 2.821-1.614 3.847Zm-2.802-5.43a1.835 1.835 0 0 0-1.116-.567 2.288 2.288 0 0 0-1.235.114c-.38.15-.704.407-.973.769-.254.362-.364.784-.333 1.267 0 .634.198 1.162.594 1.584.412.407.926.611 1.543.611.634 0 1.148-.196 1.544-.588.396-.408.594-.943.594-1.607 0-.633-.206-1.161-.618-1.584ZM64.022 4.462c2.024 0 7.417.03 7.417.03s.004 6.591.004 8.894c0 .443-.182.824-.546 1.145-.347.305-.662.457-1.191.457-.53 0-.8.04-1.164-.265-.347-.32-.667-.894-.667-1.337v-5.95H65.42c0 4.266 0 5.203-1.57 6.728-.58.55-1.325.824-2.235.824-.546 0-.867-.13-1.214-.436-.347-.32-.617-.832-.617-1.304 0-1.018.213-1.423.76-2.088 1.566 0 1.498-.38 1.4-3.266v-1.83c.017-.443.098-1.602.098-1.602h1.98ZM93.16 12.745c0 1.239-1.05 2.243-2.345 2.243-1.295 0-2.344-1.005-2.344-2.243s1.05-2.242 2.344-2.242c1.295 0 2.345 1.004 2.345 2.242Z"/>
  </symbol>

  <symbol id="logo-full" viewBox="0 0 168 42" >
    <path d="M78.016 10.62 44.736 42 32.59 1.772l45.427 8.849Z" fill="#FF8D30"/><ellipse cx="78.624" cy="28.474" rx="3.613" ry="3.572" fill="#88BFEB"/><ellipse cx="92.85" cy="18.086" rx="12.594" ry="12.45" fill="#EB9898"/><path fill="#72A73E" d="m85.439 19.575 43.818-16.03 8.258 22.06-43.818 16.029z"/><ellipse cx="91.334" cy="34.141" rx="2.117" ry="2.093" fill="#FFBD30"/><ellipse rx="18.919" ry="7.587" transform="matrix(.97025 .24212 -.24742 .9689 132.047 28.05)" fill="#8EC7F5"/><ellipse cx="146.385" cy="10.256" rx="2.153" ry="2.128" fill="#FFBD30"/><ellipse cx="153.101" cy="7.728" rx="2.153" ry="2.128" fill="#FFBD30"/><path d="M3.342 35.349h4.99v2.32a1 1 0 0 1-1 1h-2.99a1 1 0 0 1-1-1v-2.32ZM34.203 35.349h4.991v2.32a1 1 0 0 1-1 1h-2.99a1 1 0 0 1-1-1v-2.32Z" fill="#1D2959"/><path fill-rule="evenodd" clip-rule="evenodd" d="M23.92 2.938c-.973-.384-2.036-.693-2.808-.677-.726.014-1.721.325-2.629.7-.508.21-1.01.44-1.493.702l-.003.002a1.187 1.187 0 0 1-1.609-.462 1.175 1.175 0 0 1 .464-1.6c.166-.091.335-.177.505-.262.306-.15.735-.353 1.23-.557.948-.391 2.29-.76 3.488-.783 1.274-.025 2.712.346 3.728.747.634.25 1.26.527 1.86.849h.001c.575.31.79 1.024.478 1.597-.309.569-1.038.778-1.608.474a17.92 17.92 0 0 0-1.604-.73Z" fill="#8A4A38"/><path fill-rule="evenodd" clip-rule="evenodd" d="M15.993 1.45c-.531 0-.962.43-.962.961v.615c0 .442.36.801.802.801h.021v3.067h.84V3.805h-.22a1.189 1.189 0 0 0-.228-2.355h-.253ZM26.513 1.45c.53 0 .961.43.961.961v.615a.801.801 0 0 1-.801.801h-.022v3.067h-.839V3.805h.219a1.189 1.189 0 0 1 .228-2.355h.254Z" fill="#F6EF3E"/><path d="M0 15.52a9 9 0 0 1 9-9h24.54a9 9 0 0 1 9 9V35.35H0V15.52Z" fill="#8A4A38"/><ellipse cx="6.684" cy="27.928" rx="4.167" ry="4.121" fill="#EF9A9A"/><ellipse rx="4.016" ry="7.727" transform="matrix(.70085 -.71331 .72133 .69259 32.766 28.07)" fill="#93C6EB"/><path fill="#C2DEA3" d="m16.396 17.905 9.432-9.925 5.588 5.19-9.432 9.925z"/><rect width="6.956" height="5.217" rx="1" transform="matrix(.7339 .67927 -.68766 .72603 8.785 11.14)" fill="#C49A6C"/><path fill="#F57B20" d="M8.333 19.362H14.2v16.8H8.333z"/><path d="M8.333 5.434h5.866v14.548a2.933 2.933 0 0 1-5.866 0V5.434Z" fill="#F6A725"/><path fill="#F6EF3E" d="M7.519 18.042h7.499v1.649H7.519z"/><path fill="#F57B20" d="M28.346 19.362h5.867v16.8h-5.867z"/><path d="M28.346 5.434h5.867v14.548a2.933 2.933 0 0 1-5.867 0V5.434Z" fill="#F6A725"/><path fill="#F6EF3E" d="M27.533 18.042h7.499v1.649h-7.499z"/><g filter="url(#a)" ><path d="M164.789 19.057c.807-.507 1.211-1.29 1.211-2.347 0-1.382-.581-2.467-1.743-3.257-1.13-.803-2.462-1.205-3.996-1.205a6.998 6.998 0 0 0-4.116 1.311c-1.227.86-1.841 2.009-1.841 3.447 0 .536.17.98.509 1.332.339.338.823.508 1.453.508.613 0 1.081-.17 1.404-.508.339-.352.509-.796.509-1.332-.033-.409.105-.825.411-1.248.307-.437.864-.655 1.671-.655.678.014 1.162.183 1.453.507.307.325.444.649.412.973 0 .226-.081.451-.242.677a2.253 2.253 0 0 1-.509.528c-.161.127-.428.31-.799.55-.371.24-.63.409-.775.508-.839.606-1.259 1.41-1.259 2.41 0 .494.177.91.533 1.248.371.324.863.486 1.477.486.613 0 1.097-.162 1.453-.486.371-.338.557-.754.557-1.248 0-.211.04-.409.121-.592.08-.183.209-.352.387-.507.194-.155.355-.282.484-.38.146-.1.356-.227.63-.382.291-.155.492-.267.605-.338ZM144.098 23.51l4.289-5.25c.44-.635 1.037-.988 1.791-1.06.754-.086 1.413.094 1.979.54.566.447.833 1.045.801 1.794v7.519c0 .475-.188.878-.565 1.21-.362.317-.802.475-1.32.475s-.966-.158-1.343-.475a1.581 1.581 0 0 1-.542-1.21v-4.667l-4.289 5.25c-.44.634-1.037.987-1.791 1.059-.754.086-1.414-.094-1.979-.54-.566-.447-.833-1.045-.801-1.794v-7.497c0-.475.18-.879.542-1.21a1.966 1.966 0 0 1 1.343-.497c.518 0 .958.166 1.319.497.378.331.566.735.566 1.21v4.645Z"/><path fill-rule="evenodd" clip-rule="evenodd" d="M124.817 26.98v-8.158c0-.47-.199-.872-.595-1.21a1.932 1.932 0 0 0-1.356-.527c-.507 0-.951.176-1.332.528-.38.337-.571.74-.571 1.209v-.198c-.19-.44-.571-.813-1.141-1.121-.571-.323-1.221-.484-1.951-.484-1.427 0-2.743.52-3.948 1.561-1.174 1.04-1.76 2.47-1.76 4.288 0 1.861.579 3.305 1.736 4.33 1.158 1.027 2.482 1.54 3.972 1.54.73 0 1.372-.132 1.927-.396.555-.278.959-.608 1.213-.99.095.397.317.726.666.99.349.25.745.374 1.189.374.523 0 .975-.169 1.356-.506.396-.337.595-.747.595-1.23Zm-6.084-1.5c1.3 0 2.354-1.128 2.354-2.52 0-1.393-1.054-2.521-2.354-2.521s-2.353 1.128-2.353 2.52c0 1.393 1.053 2.521 2.353 2.521Z"/><path d="M107.15 21.311v-2.358c0-.479.197-.885.589-1.219a2.008 2.008 0 0 1 1.375-.523c.523 0 .981.175 1.374.523.392.334.589.74.589 1.22v8.078c0 .479-.197.885-.589 1.219-.377.334-.835.5-1.374.5-.54 0-1.007-.166-1.399-.5-.376-.334-.565-.74-.565-1.22V24.64h-4.245v2.393c0 .479-.196.885-.589 1.219-.376.334-.834.5-1.374.5-.54 0-1.006-.166-1.398-.5-.377-.334-.565-.74-.565-1.22v-8.078c0-.479.196-.885.59-1.219.392-.348.85-.523 1.373-.523.524 0 .982.175 1.374.523.393.334.589.74.589 1.22v2.357h4.245ZM97.01 17.212c.384 0 .713.144.988.433.275.288.412.954.412 1.358 0 .404-.137.822-.412 1.11-.275.289-.604.39-.989.39h-3.29v6.57c0 1.243-1.105 1.679-2.212 1.679-1.029 0-2.01-.551-2.01-1.667l.034-9.873h7.478ZM73.537 12.248v14.668c0 .484-.266.894-.634 1.231-.353.337-.907.506-1.413.506s-1.237-.169-1.605-.506a1.639 1.639 0 0 1-.53-1.231V15.559h-5.92v11.357c0 .484-.183.894-.551 1.231-.353.337-1.071.506-1.577.506s-1.17-.169-1.537-.506a1.64 1.64 0 0 1-.53-1.231V12.248h14.297ZM86.64 26.953c-1.198 1.112-2.8 1.668-4.807 1.668-2.007 0-3.6-.556-4.78-1.668-1.215-1.129-1.822-2.54-1.822-4.233 0-1.71.607-3.12 1.822-4.232 1.18-1.112 2.773-1.668 4.78-1.668s3.61.556 4.806 1.668c1.198 1.128 1.796 2.54 1.796 4.232 0 1.693-.598 3.104-1.796 4.233Zm-3.117-5.976a2.049 2.049 0 0 0-1.241-.622 2.57 2.57 0 0 0-1.373.125 2.48 2.48 0 0 0-1.083.846c-.282.398-.405.863-.37 1.394 0 .697.22 1.278.66 1.743.458.448 1.03.672 1.717.672.704 0 1.276-.216 1.717-.647.44-.448.66-1.037.66-1.768 0-.697-.229-1.278-.687-1.742ZM130.438 17.157c2.251 0 8.249.033 8.249.033s.004 7.252.004 9.786c0 .487-.202.907-.607 1.26-.387.335-.736.503-1.325.503s-.889.044-1.294-.292c-.386-.352-.742-.984-.742-1.47V20.43h-2.732c0 4.693.001 5.724-1.746 7.402-.644.604-1.472.907-2.484.907-.608 0-.964-.144-1.351-.48-.386-.352-.686-.915-.686-1.435 0-1.12.237-1.566.844-2.297 1.743 0 1.667-.417 1.558-3.593V18.92c.018-.487.109-1.763.109-1.763h2.203ZM162.841 26.27c0 1.363-1.167 2.468-2.607 2.468-1.44 0-2.607-1.105-2.607-2.467 0-1.363 1.167-2.468 2.607-2.468 1.44 0 2.607 1.105 2.607 2.468Z"/></g><defs><filter id="a" x="57.241" y="11.248" width="110.759" height="20.504" filterUnits="userSpaceOnUse" color-interpolation-filters="sRGB"><feFlood flood-opacity="0" result="BackgroundImageFix"/><feColorMatrix in="SourceAlpha" values="0 0 0 0 0 0 0 0 0 0 0 0 0 0 0 0 0 0 127 0" result="hardAlpha"/><feOffset dy="1"/><feGaussianBlur stdDeviation="1"/><feColorMatrix values="0 0 0 0 0 0 0 0 0 0 0 0 0 0 0 0 0 0 0.3 0"/><feBlend in2="BackgroundImageFix" result="effect1_dropShadow_13528_717"/><feBlend in="SourceGraphic" in2="effect1_dropShadow_13528_717" result="shape"/></filter></defs>
  </symbol>
</svg>
