<svg width="17" height="20" viewBox="0 0 17 20" xmlns="http://www.w3.org/2000/svg">
    <path d="M12.976 4.76c.95 0 1.721-.86 1.721-1.92S13.927.92 12.976.92c-.95 0-1.721.86-1.721 1.92s.77 1.92 1.72 1.92ZM11.923 9.53c.198.329.481.581.812.724.33.142.693.168 1.037.073l2.854-.796-.416-1.862-2.854.796L12.17 6.48a1.735 1.735 0 0 0-1.094-.82l-3.31-.739a1.56 1.56 0 0 0-1.094.158c-.34.185-.614.49-.783.867L4.461 9.129l1.54.86 1.427-3.185 1.692.378-4.377 8.138H.928v1.92h3.815c.601 0 1.167-.357 1.476-.932L7.87 13.24l4.448.992 1.563 5.231 1.632-.607-1.562-5.23a1.955 1.955 0 0 0-.495-.833 1.665 1.665 0 0 0-.801-.444l-2.615-.583 1.525-2.836.358.6Z" />
</svg>
