<svg viewBox="0 0 21 17" xmlns="http://www.w3.org/2000/svg">
    <path d="M13.603 8.2 9.248 5.298a.363.363 0 0 0-.563.3v5.806a.354.354 0 0 0 .191.318.407.407 0 0 0 .172.045.327.327 0 0 0 .2-.063l4.355-2.904a.354.354 0 0 0 0-.598ZM9.41 10.724V6.277L12.75 8.5l-3.339 2.223ZM19.8 3.31a1.85 1.85 0 0 0-1.097-1.233C15.635.897 10.709.915 10.5.915c-.209 0-5.135-.018-8.202 1.162A1.85 1.85 0 0 0 1.201 3.31C.974 4.19.7 5.805.7 8.5c0 2.694.273 4.31.5 5.19a1.852 1.852 0 0 0 1.097 1.233c3.067 1.18 7.993 1.162 8.202 1.162h.063c.627 0 5.226-.037 8.139-1.162a1.852 1.852 0 0 0 1.097-1.233c.227-.88.5-2.495.5-5.19 0-2.695-.273-4.31-.5-5.19Zm-.707 10.198a1.088 1.088 0 0 1-.653.735c-2.94 1.134-7.885 1.116-7.939 1.116-.054 0-4.999.018-7.939-1.116a1.088 1.088 0 0 1-.653-.735c-.217-.844-.48-2.395-.48-5.008s.263-4.164.48-5.008a1.089 1.089 0 0 1 .653-.735c2.94-1.134 7.885-1.116 7.939-1.116.054 0 4.999-.018 7.939 1.116a1.089 1.089 0 0 1 .653.735c.218.844.48 2.395.48 5.008s-.262 4.164-.48 5.008Z"/>
</svg>
